<svg xmlns="http://www.w3.org/2000/svg"  viewBox="0 0 50 50" width="200px" height="200px" baseProfile="basic"><path fill="#ffd217" d="M32.152,47v-4C36.479,43,40,39.479,40,35.152v-1.305C40,29.521,36.479,26,32.152,26H17.848 C13.521,26,10,29.521,10,33.848v1.305C10,39.479,13.521,43,17.848,43v4C11.315,47,6,41.686,6,35.152v-1.305 C6,27.314,11.315,22,17.848,22h14.305C38.685,22,44,27.314,44,33.848v1.305C44,41.686,38.685,47,32.152,47z"/><ellipse cx="18.5" cy="34" fill="#742bc9" rx="2.5" ry="4"/><ellipse cx="31.5" cy="34" fill="#742bc9" rx="2.5" ry="4"/><path fill="#af87ce" d="M31.5,47h-13C8.299,47,0,38.701,0,28.5c0-4.733,1.764-9.178,4.986-12.619 c-0.22-3.308,0.12-6.548,1.074-10.366l0.546-2.186l2.106,0.802c4.586,1.747,7.178,3.806,9.685,5.797L18.488,10 c0.004,0,0.008,0,0.012,0h12.786c2.992-2.335,5.867-4.382,9.77-5.869l1.995-0.76l0.628,2.04c1.271,4.128,1.337,7.383,1.124,10.258 C48.117,19.107,50,23.729,50,28.5C50,38.701,41.701,47,31.5,47z M9.432,8.783c-0.521,2.74-0.634,5.124-0.387,7.653l0.094,0.962 L8.443,18.07C5.578,20.835,4,24.539,4,28.5C4,36.495,10.505,43,18.5,43h13C39.495,43,46,36.495,46,28.5 c0-4.054-1.645-7.818-4.632-10.601l-0.721-0.672l0.093-0.98c0.235-2.48,0.259-4.782-0.315-7.485 c-2.658,1.303-4.88,2.975-7.239,4.832l-0.567,0.447l-0.722-0.02c-0.096-0.002-0.19-0.008-0.285-0.015L31.499,14H18.5 c-0.087,0-0.173,0.007-0.259,0.013c-0.112,0.008-0.224,0.016-0.337,0.02l-0.732,0.025l-1.263-0.998 C13.996,11.54,12.168,10.089,9.432,8.783z"/><path fill="#742bc9" d="M9.168,17.418c-0.179-1.566-0.215-3.03-0.264-4.693c-1.414,0.874-2.793,1.973-3.921,3.183 c0.157,1.896,0.402,3.813,0.738,5.749C6.595,20.034,7.77,18.598,9.168,17.418z"/><path fill="#742bc9" d="M17.182,14.067C17.617,14.027,18.055,14,18.5,14h4.38c-1.272-1.406-2.738-2.75-4.393-4 c-2.021,0.001-3.701,0.239-5.523,0.842C14.53,11.992,15.838,12.952,17.182,14.067z"/><path fill="#742bc9" d="M26.888,14H31.5c0.371,0,0.735,0.028,1.099,0.056c1.365-1.13,2.647-2.216,4.309-3.189 C35.124,10.293,33.472,10,31.5,10h-0.218C29.627,11.25,28.16,12.594,26.888,14z"/><path fill="#742bc9" d="M40.87,12.579c-0.046,1.517-0.077,3.111-0.25,4.663c1.402,1.138,2.583,2.534,3.482,4.113 c0.323-1.913,0.552-3.807,0.7-5.681C43.667,14.497,42.28,13.424,40.87,12.579z"/></svg>